ply
format ascii 1.0
element vertex 256
comment vertices
property float x
property float y
property float z
end_header
0.011274293065071106 0.14206288754940033 -0.190523698925971985
0.0723626241087913513 0.162276431918144226 0.0100052505731582642
-0.00959739089012145996 0.147344350814819336 -0.0336726829409599304
0.100480899214744568 0.2612723708152771 -0.00595274940133094788
0.0388744547963142395 0.332001924514770508 0.0281731262803077698
0.185919985175132751 0.128706991672515869 0.0531187504529953003
-0.092776760458946228 0.279634863138198853 -0.0819065198302268982
0.0855352282524108887 0.2604655921459198 0.000901524210348725319
-0.138413578271865845 0.23159453272819519 -0.177804455161094666
-0.0767730772495269775 0.306207209825515747 -0.0274310223758220673
-0.610514998435974121 -0.482892364263534546 -0.00260611018165946007
-0.508053302764892578 -0.385865509510040283 -0.588208496570587158
-0.873980700969696045 -0.765193164348602295 0.336209148168563843
0.0797129571437835693 -0.359273999929428101 -0.158889055252075195
0.358443319797515869 -1.59256231784820557 0.395919144153594971
-0.357657492160797119 -0.657974600791931152 0.471294164657592773
-1.04068911075592041 0.0317498445510864258 -0.111861102283000946
-0.334397941827774048 -0.397951900959014893 0.318895250558853149
-0.936928510665893555 -0.611129999160766602 0.183325201272964478
-0.461476564407348633 -0.0418949127197265625 0.298518091440200806
-0.132438302040100098 -0.639619231224060059 -0.838779747486114502
-0.0864771902561187744 -0.694024205207824707 -0.376321732997894287
-0.521474599838256836 -0.749118924140930176 0.825805842876434326
0.637625455856323242 0.102676749229431152 -0.0794352293014526367
-0.139867395162582397 -2.07712674140930176 0.370963603258132935
-0.0554047822952270508 -0.499118983745574951 0.24039013683795929
-0.921668648719787598 1.14547371864318848 0.128104999661445618
-0.140163570642471313 -0.248830989003181458 -0.090234413743019104
-0.371538430452346802 -0.702979683876037598 0.116806469857692719
0.0597183257341384888 0.610208868980407715 -0.323703348636627197
-0.521187126636505127 -0.0344890356063842773 -0.509360373020172119
-0.660623908042907715 -0.248540192842483521 -0.49584275484085083
-1.10693073272705078 -0.610834479331970215 -0.0875564590096473694
-0.428712934255599976 0.162483036518096924 0.0539858043193817139
0.0193344056606292725 -0.559669971466064453 0.503968000411987305
-0.327415168285369873 0.119679048657417297 -0.127739742398262024
-0.760086655616760254 0.64710235595703125 0.115203045308589935
-0.483520925045013428 0.0761648714542388916 0.525192081928253174
-0.967749714851379395 0.189588934183120728 0.625510811805725098
0.0585452020168304443 0.106731310486793518 0.0413224324584007263
0.117556072771549225 0.0146379619836807251 0.192920297384262085
0.0651599839329719543 -0.216295331716537476 -0.00716817378997802734
-0.119775906205177307 -0.0536978617310523987 0.0603566728532314301
-0.0134165212512016296 -0.0906191617250442505 0.0806543976068496704
0.0279188696295022964 -0.196950137615203857 0.0470954328775405884
0.0251356735825538635 0.0930840373039245605 0.110463671386241913
0.308421194553375244 0.560726821422576904 -0.317800819873809814
0.146577492356300354 -0.0681073740124702454 0.176410526037216187
0.148851007223129272 -0.333036065101623535 -0.066831439733505249
-0.12988559901714325 -0.0895809009671211243 -0.165904581546783447
0.465193241834640503 -0.13963945209980011 -0.289978086948394775
-0.238266110420227051 -0.287614166736602783 -0.588185966014862061
-0.449253201484680176 -1.39118397235870361 0.377587795257568359
0.380465924739837646 0.462566763162612915 -0.107931524515151978
0.686510622501373291 -0.725980222225189209 0.38361629843711853
0.293975532054901123 0.298888951539993286 -0.150961071252822876
-0.10480162501335144 0.524052262306213379 0.301791131496429443
-0.112095773220062256 -0.193989753723144531 0.671841740608215332
-0.644324421882629395 0.376579076051712036 0.422184169292449951
0.246205314993858337 -0.0332636386156082153 -0.354571431875228882
-0.292071133852005005 -0.194267600774765015 -0.418122917413711548
0.0357400178909301758 -0.0954188704490661621 -0.350115120410919189
-0.519484996795654297 -0.417561501264572144 0.386101871728897095
0.419793844223022461 0.954276919364929199 -0.215133234858512878
0.471330314874649048 -0.891713142395019531 0.191153720021247864
0.144396260380744934 -0.165817081928253174 -0.31747087836265564
-0.477789133787155151 0.863634467124938965 -0.0560468994081020355
0.368281245231628418 0.617964684963226318 0.634691357612609863
-0.670295953750610352 0.079084441065788269 0.247905895113945007
0.316311031579971313 1.03292953968048096 -0.00180226145312190056
-0.379244208335876465 -0.247800618410110474 -0.445751965045928955
-0.375157952308654785 -0.15097452700138092 -0.544949173927307129
-0.891518115997314453 -0.617582559585571289 0.311224520206451416
-0.143192410469055176 0.0232220664620399475 0.302008837461471558
0.0354018807411193848 -0.820706009864807129 0.163753911852836609
-0.0114875137805938721 0.257500976324081421 -0.0379421375691890717
-0.692814886569976807 0.468764126300811768 0.299490392208099365
-0.519854545593261719 0.222230821847915649 0.579331755638122559
-0.724991202354431152 0.149770110845565796 0.671170592308044434
0.587547779083251953 0.163836240768432617 0.0200066864490509033
-0.00934170931577682495 0.110276482999324799 0.242964282631874084
-0.245990902185440063 -0.163140401244163513 -0.0823519676923751831
-0.129644006490707397 0.0744931697845458984 0.11832912266254425
-0.261782824993133545 -0.0803327411413192749 -0.0160019584000110626
-0.0143539905548095703 -0.00488600879907608032 -0.0711252689361572266
-0.270970821380615234 0.499454081058502197 0.00540201738476753235
0.579841136932373047 1.08899021148681641 -0.695939183235168457
-0.225078731775283813 0.022837422788143158 0.168631389737129211
0.199255138635635376 -0.34229123592376709 0.0612942799925804138
-0.0167298167943954468 0.103153720498085022 -0.162945061922073364
-0.995563268661499023 0.066826358437538147 -0.771042525768280029
-0.479628801345825195 -0.116526812314987183 -0.296360105276107788
-0.94059675931930542 0.145693674683570862 -0.106855534017086029
-0.336890876293182373 0.230517119169235229 0.06117243692278862
0.305045008659362793 -0.0379583537578582764 0.217847198247909546
-0.205190300941467285 0.464559078216552734 0.0571393109858036041
-0.503845751285552979 0.661491632461547852 0.0505337081849575043
-0.357647120952606201 0.570236921310424805 0.364782452583312988
-0.768892049789428711 0.216423660516738892 0.364293336868286133
0.429893076419830322 0.307547688484191895 -0.145642995834350586
-0.599419534206390381 -0.9377022385597229 -0.508783698081970215
-0.346589416265487671 -0.720216870307922363 -0.332342654466629028
-0.903983414173126221 -0.993689954280853271 0.861409783363342285
-0.0614683292806148529 0.287436485290527344 0.0419558361172676086
-0.173154309391975403 -1.75367093086242676 0.317946523427963257
-0.34334099292755127 -0.613691091537475586 -0.126909211277961731
-1.09229421615600586 0.673616409301757812 0.243330180644989014
-0.353696286678314209 -0.242731779813766479 0.625131070613861084
-0.883267462253570557 -0.344695329666137695 0.785005688667297363
-0.031298663467168808 0.408604741096496582 0.102671496570110321
0.296401947736740112 -0.0208725631237030029 0.0918225795030593872
0.196740835905075073 0.067035675048828125 -0.163308367133140564
0.09790763258934021 0.223536938428878784 -0.154660522937774658
0.0561529844999313354 -0.0442345812916755676 0.0144221372902393341
0.080471038818359375 -0.0457303524017333984 -0.0412515811622142792
0.0796799808740615845 0.138742536306381226 0.136367812752723694
0.433832913637161255 0.728689432144165039 -0.399995952844619751
0.125446707010269165 0.16105981171131134 0.140269428491592407
0.195823550224304199 -0.171621024608612061 0.238335698843002319
0.077946789562702179 0.207909315824508667 -0.179401800036430359
0.0553511232137680054 -0.340534985065460205 -0.483470350503921509
0.0370101332664489746 -0.352105796337127686 -0.679028034210205078
-0.364874362945556641 -0.935215473175048828 0.477313131093978882
0.521701276302337646 0.336853116750717163 0.247389122843742371
0.096025027334690094 -1.11956262588500977 0.311488062143325806
0.0276918709278106689 0.145612359046936035 -0.250257521867752075
-0.434377074241638184 0.479491084814071655 0.601822018623352051
-0.128157287836074829 0.0831334739923477173 0.462251186370849609
-0.421752810478210449 -0.436898946762084961 0.573980271816253662
0.710811257362365723 0.382956475019454956 -0.0595850460231304169
-0.152359709143638611 -0.838576555252075195 -0.366503685712814331
0.00557090342044830322 -0.484842777252197266 -0.449171990156173706
-0.357300937175750732 -0.860960841178894043 0.940539062023162842
0.314724087715148926 0.0664538443088531494 0.0684899836778640747
0.11850062757730484 -1.83197855949401855 0.236698538064956665
-0.0303033739328384399 -0.236372917890548706 0.0375099554657936096
-0.783369958400726318 0.560398757457733154 0.438079208135604858
-0.148168310523033142 -0.255815625190734863 0.297438979148864746
-0.471875548362731934 -0.257835239171981812 0.62678605318069458
-0.124624282121658325 0.862187385559082031 0.190356239676475525
0.481367409229278564 0.191910892724990845 -0.172828391194343567
-0.396940410137176514 -0.132495269179344177 -0.669997692108154297
-0.351039767265319824 -0.668865203857421875 0.0162886399775743484
0.296740353107452393 0.494849503040313721 0.0936357378959655762
0.607857823371887207 -0.475876867771148682 0.167166799306869507
0.387058913707733154 0.700643420219421387 0.042215101420879364
-0.0901224762201309204 0.370350033044815063 0.591984808444976807
-0.382402777671813965 0.2268410325050354 0.82978445291519165
-0.490377426147460938 0.516528069972991943 0.487862884998321533
0.530934691429138184 0.480862796306610107 -0.182871162891387939
-0.805202245712280273 0.299469947814941406 -0.197288632392883301
-0.463258534669876099 0.331590116024017334 -0.450902432203292847
-0.860474824905395508 0.131580904126167297 0.233252033591270447
-0.59062647819519043 -0.374430179595947266 0.159766465425491333
0.772601723670959473 -0.704430878162384033 0.190579980611801147
-0.20947815477848053 0.373019158840179443 0.518367767333984375
-0.788892149925231934 0.164713665843009949 0.0186113230884075165
-0.638847947120666504 0.198617160320281982 0.462403774261474609
-0.821915745735168457 0.607065439224243164 0.602117776870727539
0.32182583212852478 0.499302983283996582 0.286986082792282104
-0.361880183219909668 -0.429015755653381348 -0.475409388542175293
-0.290825039148330688 -0.450114965438842773 -0.167213901877403259
-0.555720746517181396 -0.696967601776123047 -0.153459981083869934
-0.0323643609881401062 -0.0223014950752258301 -0.0683335810899734497
-0.0198623687028884888 -0.370088338851928711 -0.0384570807218551636
-0.221321135759353638 -0.0882246717810630798 -0.00199107173830270767
-0.458812564611434937 0.215943917632102966 -0.0959954708814620972
-0.289543628692626953 -0.192407608032226562 0.283273607492446899
-0.607234835624694824 -0.189631089568138123 -0.109802432358264923
-0.197779834270477295 -0.00642101466655731201 -0.0705514699220657349
-0.0439327061176300049 -0.0452190935611724854 0.0797897353768348694
-0.0479277446866035461 -0.102807909250259399 -0.0873768776655197144
0.00486265867948532104 -0.0787565633654594421 0.11112523078918457
-0.173093914985656738 -0.0433578789234161377 -0.0364093892276287079
-0.116828061640262604 -0.222505837678909302 -0.101855084300041199
-0.118687354028224945 0.0706880539655685425 0.0952982679009437561
0.390421599149703979 0.315573751926422119 -0.260251045227050781
-0.237746149301528931 -0.16910572350025177 -0.122329853475093842
0.0929700359702110291 -0.254532396793365479 0.0860607028007507324
-0.190654844045639038 -0.0414190813899040222 -0.143730297684669495
-0.568498790264129639 0.232336878776550293 -0.446498066186904907
-0.203726217150688171 0.284849733114242554 -0.384621590375900269
-0.599298298358917236 0.282149791717529297 -0.0364708863198757172
0.0756419673562049866 0.229238599538803101 0.0910654962062835693
0.79863971471786499 -0.0999231636524200439 -0.266135841608047485
0.230428680777549744 0.486481428146362305 -0.00923288427293300629
-0.161130145192146301 0.540746212005615234 0.199584305286407471
0.141966521739959717 0.666943192481994629 0.371377497911453247
-0.292407810688018799 0.276835441589355469 0.123725138604640961
0.628665566444396973 0.446787029504776001 0.0407544225454330444
-0.164304226636886597 0.0512223243713378906 -0.0100760692730545998
-0.0781118273735046387 -0.0445616357028484344 -0.0153414970263838768
-0.176059246063232422 0.0416373759508132935 -0.00888831261545419693
-0.288805842399597168 -0.0158940739929676056 -0.0597142651677131653
-0.187525391578674316 -0.0564516149461269379 0.0159205719828605652
-0.232972025871276855 -0.0420239381492137909 0.0843028947710990906
-0.0506852269172668457 0.202307537198066711 -0.207946032285690308
-0.0405019372701644897 0.0584296137094497681 0.130831003189086914
-0.169578015804290771 0.118696928024291992 0.126263320446014404
-0.200587883591651917 0.00208930298686027527 -0.0449291802942752838
-0.0479495301842689514 0.2589988112449646 -0.074182167649269104
-0.0289205387234687805 0.179391622543334961 -0.0959719419479370117
-0.0805033296346664429 0.188988998532295227 -0.0316789597272872925
-0.0767746269702911377 0.195347875356674194 0.0257614757865667343
0.0170437544584274292 0.09838896244764328 -0.0595140457153320312
-0.097492709755897522 0.107647344470024109 0.0959647819399833679
0.17667195200920105 0.455786228179931641 -0.0878223106265068054
-0.0633179247379302979 0.0563408434391021729 0.0518229641020298004
-0.0453946739435195923 0.236293703317642212 0.106879092752933502
-0.0982130467891693115 0.22542475163936615 -0.083326190710067749
-0.0277035683393478394 -0.0801010727882385254 -0.427785187959671021
-0.489831626415252686 -0.255624055862426758 -0.744038820266723633
-0.433556675910949707 -0.801553606986999512 0.16679072380065918
0.264146983623504639 0.0342545546591281891 0.028418099507689476
0.263980984687805176 -0.658860564231872559 0.270519673824310303
0.167596817016601562 0.440684139728546143 0.022422129288315773
-0.180481687188148499 0.343058586120605469 0.208788484334945679
-0.192496851086616516 -0.0485506132245063782 0.392150521278381348
-0.561194062232971191 0.236816659569740295 0.0980791226029396057
0.163135230541229248 -0.044790312647819519 -0.330179214477539062
-0.459627300500869751 -0.346556782722473145 -0.360293716192245483
0.0411134101450443268 0.0306929647922515869 0.0844361558556556702
-0.700488090515136719 -0.301321506500244141 0.158990621566772461
-0.0117445942014455795 0.0595318526029586792 -0.00471736211329698563
-0.21850179135799408 -0.0511447042226791382 -0.11890825629234314
-0.249539837241172791 0.183466494083404541 -0.0465588979423046112
-0.296734541654586792 0.191357582807540894 -0.119045369327068329
0.0848361551761627197 0.110861070454120636 0.258350223302841187
-0.503879964351654053 0.193402692675590515 -0.0973997265100479126
-0.0753739476203918457 0.131056249141693115 0.13615870475769043
0.325778603553771973 -0.176667362451553345 0.0873498916625976562
-0.47541537880897522 -0.168792694807052612 -0.741097867488861084
-0.556580305099487305 -1.14829277992248535 0.308320224285125732
-0.109609305858612061 0.074548184871673584 -0.0517016947269439697
0.470414251089096069 -1.0495460033416748 0.155464082956314087
0.247317641973495483 0.245205521583557129 -0.263212710618972778
-0.190627634525299072 -0.0248100757598876953 0.582635939121246338
-0.547160327434539795 -0.472381502389907837 0.690170466899871826
-0.72386622428894043 0.409856736660003662 0.578524887561798096
0.0187442712485790253 0.0375253558158874512 -0.285781443119049072
0.320174485445022583 -0.267820954322814941 -0.599820733070373535
-0.23442995548248291 -0.445100545883178711 -0.666315734386444092
-0.265037000179290771 -1.15735363960266113 0.398621112108230591
0.465505897998809814 0.370400995016098022 -0.0626983046531677246
0.446943700313568115 -0.840130984783172607 0.286634206771850586
0.156835973262786865 0.159300029277801514 -0.37916409969329834
-0.34059065580368042 0.425471693277359009 0.342687696218490601
0.174869954586029053 0.0165017098188400269 0.724853813648223877
-0.747165977954864502 -0.00466085225343704224 0.378030389547348022
0.416179060935974121 0.152689635753631592 -0.20578610897064209
-0.119391143321990967 -0.0230069011449813843 -0.102797552943229675
-0.103668510913848877 -0.0537742674350738525 -0.755476653575897217
-0.685922026634216309 -0.817779660224914551 0.313487440347671509
-0.181639224290847778 -0.500364243984222412 0.118397101759910583
0.675860047340393066 -1.15416920185089111 0.518184244632720947
-0.167512372136116028 -0.190135538578033447 0.305209219455718994
