ply
format ascii 1.0
element vertex 10
comment vertices
property float x
property float y
property float z
end_header
0.51288139820098877 -1.27995336055755615 -0.834505140781402588
0.947974205017089844 -0.156624794006347656 -1.896628737449646
1.24918842315673828 -1.54098844528198242 -1.78936052322387695
0.968737125396728516 -0.779119491577148438 -1.12452840805053711
0.938768148422241211 -0.64980471134185791 -0.862568140029907227
0.110194236040115356 -1.07129073143005371 -1.46573352813720703
0.494097590446472168 -1.44930124282836914 -2.45871591567993164
0.485311329364776611 -0.422750294208526611 -1.05930423736572266
-2.26421833038330078 0.213586375117301941 -0.173783540725708008
-0.20269167423248291 -0.591443061828613281 -0.251299619674682617
