ply
format ascii 1.0
element vertex 256
comment vertices
property float x
property float y
property float z
end_header
1.44503188133239746 -0.283210277557373047 -0.0958494395017623901
-3.19697117805480957 -1.84900546073913574 -0.16150037944316864
1.07324838638305664 -1.65176737308502197 -1.80780386924743652
1.11732888221740723 -2.55155324935913086 -3.21352577209472656
-1.78709530830383301 0.38761061429977417 1.27953028678894043
-1.74650955200195312 -1.32752895355224609 -1.69196236133575439
-2.19710874557495117 0.283836662769317627 -2.6422116756439209
-2.83137154579162598 -1.93030953407287598 0.0276586506515741348
-1.96614766120910645 0.683281481266021729 -1.78940010070800781
0.350969910621643066 -1.14017343521118164 -1.00022995471954346
0.0524530410766601562 0.0612266063690185547 -1.35444545745849609
-2.17999529838562012 0.731786608695983887 0.601153373718261719
1.37106752395629883 -0.128142952919006348 -1.34398090839385986
0.168908834457397461 -0.662067413330078125 -2.57027959823608398
-0.135501384735107422 3.52961254119873047 0.944895148277282715
-1.35498213768005371 0.992622852325439453 -1.40619051456451416
-3.3670344352722168 2.00075149536132812 -3.06641077995300293
-3.29440975189208984 1.51837754249572754 -0.358252108097076416
-1.8859703540802002 2.22350287437438965 -0.668971657752990723
-0.623995125293731689 0.837318718433380127 -0.270471066236495972
0.880401134490966797 -0.180676937103271484 -2.28396797180175781
-1.76991605758666992 0.225908607244491577 -1.39590728282928467
1.44294571876525879 0.69902491569519043 -1.4526054859161377
0.840650618076324463 -1.31329953670501709 -2.39506983757019043
0.452170610427856445 1.37868571281433105 0.795486748218536377
-0.186128616333007812 0.632481098175048828 -0.786772072315216064
-0.879604816436767578 2.07625770568847656 -1.9926377534866333
-0.813926935195922852 0.0788509249687194824 -0.0293917171657085419
0.375953108072280884 1.51021981239318848 -0.184037819504737854
1.63665080070495605 0.384459435939788818 -1.1913522481918335
1.18724393844604492 -0.123809881508350372 -1.87998688220977783
-1.59044456481933594 -0.263079226016998291 1.36086690425872803
3.06000113487243652 -1.52751553058624268 -2.24389386177062988
0.418939590454101562 -3.42241978645324707 -3.96574902534484863
-0.0705611705780029297 2.16616010665893555 1.71961045265197754
-0.327006936073303223 -0.371936202049255371 -3.00277256965637207
-4.17584991455078125 1.50600957870483398 -4.05367374420166016
-4.72979021072387695 -0.760381400585174561 -0.637229204177856445
-1.51985323429107666 0.953549087047576904 -1.91208112239837646
-1.30827128887176514 -0.586629390716552734 -0.16699334979057312
0.714919924736022949 -0.524430811405181885 -1.51508855819702148
-0.739435315132141113 -1.0605548620223999 -0.860894083976745605
2.32238245010375977 -0.564885318279266357 -2.22217893600463867
0.747651815414428711 -2.29566001892089844 -1.86315655708312988
0.398989439010620117 0.172438919544219971 1.77788031101226807
-0.145246744155883789 -1.03347253799438477 -1.55493772029876709
0.313186705112457275 0.46608501672744751 -1.97654950618743896
-0.0830032825469970703 -0.76068490743637085 0.24841676652431488
0.342258542776107788 -0.191802471876144409 -0.779665291309356689
1.24445080757141113 0.0710191130638122559 -1.0018305778503418
1.02806234359741211 1.06711709499359131 -0.400350004434585571
-3.13000845909118652 -0.0122396945953369141 0.128291398286819458
1.43545687198638916 -0.419157683849334717 -2.03271389007568359
0.746733784675598145 -0.853750526905059814 -3.49681377410888672
-0.802335619926452637 1.41479456424713135 1.02367746829986572
-2.04418182373046875 0.0829622149467468262 -0.119343258440494537
-1.96250259876251221 1.86403298377990723 -2.19908523559570312
-2.20847272872924805 0.216630905866622925 -0.246204838156700134
-1.43160808086395264 1.53344178199768066 -1.45526027679443359
0.676016688346862793 0.922815442085266113 -2.01963186264038086
2.17170286178588867 -2.96310019493103027 -0.0531761683523654938
-1.94380712509155273 -2.08916139602661133 1.7100297212600708
1.55350244045257568 -3.88221025466918945 -1.58485507965087891
1.44622838497161865 -5.09646081924438477 -2.88900613784790039
-1.32557201385498047 1.12874090671539307 1.21449673175811768
-0.495099961757659912 -1.08869671821594238 -0.88989567756652832
-4.97669792175292969 -1.04361331462860107 -3.79635000228881836
-4.69293689727783203 -0.666461646556854248 -0.880590915679931641
-2.3454439640045166 -0.360217034816741943 -0.193567797541618347
-0.871775209903717041 -2.78716945648193359 -1.14318704605102539
2.53142714500427246 -0.952167212963104248 -1.90022373199462891
-1.01763308048248291 -0.442939400672912598 0.0851612240076065063
2.2458643913269043 -0.682634532451629639 -2.18460869789123535
1.70089292526245117 -3.00944781303405762 -2.77255153656005859
-0.917456150054931641 1.90615153312683105 1.21505486965179443
0.270265102386474609 -0.0441447831690311432 -2.32082438468933105
-1.79643738269805908 0.308548480272293091 -2.19296598434448242
-2.62501001358032227 -0.991565585136413574 -0.394434154033660889
-1.43078231811523438 0.654821813106536865 -1.09824085235595703
0.649320662021636963 -0.349059998989105225 -1.41521382331848145
1.26377546787261963 -0.772588014602661133 -0.844097375869750977
-2.90570783615112305 -1.75164484977722168 0.864352703094482422
1.52214276790618896 -2.58869552612304688 -1.98844707012176514
1.19999682903289795 -3.2936553955078125 -3.80529069900512695
-1.07444798946380615 1.16650211811065674 1.7994842529296875
-0.590529024600982666 -1.11342835426330566 -2.41887474060058594
-3.34553289413452148 1.0581657886505127 -3.88165831565856934
-4.88484907150268555 -2.0086369514465332 -0.688408136367797852
-1.88836681842803955 1.06762468814849854 -1.59796380996704102
0.349674105644226074 -1.86489331722259521 -0.59640270471572876
1.7452855110168457 -0.54351574182510376 -1.08140361309051514
-2.87084865570068359 -0.817687451839447021 -0.37627747654914856
1.42341518402099609 -0.853481590747833252 -1.89704453945159912
0.701693117618560791 -2.82508182525634766 -3.32330036163330078
-1.42289161682128906 1.36504149436950684 1.95596778392791748
-0.977205157279968262 -0.368892788887023926 -1.83320403099060059
-2.11339998245239258 0.897973775863647461 -2.9036104679107666
-2.572723388671875 -1.72033011913299561 -0.320594489574432373
-1.76886081695556641 1.07250761985778809 -0.906550467014312744
-0.127060532569885254 -0.645423054695129395 -0.654402494430541992
1.19246959686279297 -0.57506716251373291 -1.21812605857849121
-3.80314731597900391 -0.161441028118133545 0.53585505485534668
1.21704006195068359 -0.502519130706787109 -2.20579290390014648
1.25980639457702637 -2.26583671569824219 -3.37236166000366211
-1.97192347049713135 3.01653289794921875 1.35711133480072021
-0.607023239135742188 0.56837308406829834 -2.61189603805541992
-3.4627692699432373 2.1836094856262207 -3.94917154312133789
-4.14852237701416016 0.42739492654800415 -0.31517067551612854
-2.38176846504211426 2.32598495483398438 -1.39300096035003662
0.00056362152099609375 0.296059012413024902 -0.538989007472991943
1.69325637817382812 0.379071086645126343 -0.365387797355651855
-1.0827796459197998 -1.19209468364715576 0.135145112872123718
2.97163295745849609 -0.523861527442932129 -1.89810049533843994
1.23627567291259766 -1.573647141456604 -2.88529491424560547
0.255240947008132935 0.935863971710205078 1.99695813655853271
-0.302758932113647461 -0.471200734376907349 -1.71154356002807617
-0.185520946979522705 1.37157166004180908 -2.28269672393798828
-0.6212310791015625 -1.54164314270019531 -0.129428669810295105
-0.203992187976837158 0.571081817150115967 -1.10811746120452881
1.3819955587387085 -0.22764955461025238 -0.847425937652587891
0.236937880516052246 -0.533428788185119629 -1.67127692699432373
-1.20235240459442139 -1.66637563705444336 -0.474731564521789551
1.89583301544189453 -0.860706984996795654 -1.63969659805297852
-0.233302265405654907 -1.89143800735473633 -2.13465285301208496
0.330033153295516968 0.00372666120529174805 1.95683109760284424
0.147238388657569885 -1.35117220878601074 -1.59706211090087891
-0.289992660284042358 0.395581364631652832 -2.04999732971191406
-0.628877401351928711 -1.10748708248138428 0.0648690760135650635
-0.306456178426742554 -0.714521288871765137 -0.492521405220031738
0.549813687801361084 -0.163642704486846924 -1.10328125953674316
0.168214976787567139 0.899661898612976074 -1.36559247970581055
-1.24560856819152832 -0.148900061845779419 -0.196450665593147278
2.19418525695800781 0.342323958873748779 -1.79223787784576416
-0.181773364543914795 -0.875721216201782227 -2.09145069122314453
0.47113114595413208 1.18889188766479492 1.29033792018890381
-0.215475082397460938 0.373686790466308594 -1.82019364833831787
0.154171362519264221 1.76594460010528564 -2.0386347770690918
-1.2567899227142334 -0.124270528554916382 -0.447740048170089722
-0.526948273181915283 0.378056973218917847 -0.71096193790435791
0.868504047393798828 0.768630445003509521 -1.55404829978942871
0.216736793518066406 0.933013916015625 -1.21030533313751221
-2.57837748527526855 0.781494021415710449 -0.373085707426071167
0.894450068473815918 1.07966518402099609 -1.88998425006866455
0.065617680549621582 -0.735405087471008301 -2.64432144165039062
-0.749413728713989258 2.45157527923583984 1.03711974620819092
-1.45433259010314941 0.549540221691131592 -1.37417590618133545
-1.90821266174316406 1.67827343940734863 -2.41431021690368652
-2.37502765655517578 0.487546980381011963 -0.732661604881286621
-1.78202176094055176 2.12989926338195801 -0.647592484951019287
-0.0634808540344238281 1.03622663021087646 -0.225096702575683594
1.00454092025756836 0.41328275203704834 -0.317489027976989746
-3.44694328308105469 -0.253031790256500244 -0.182654663920402527
0.767222106456756592 -0.500282227993011475 -2.69414806365966797
0.260948598384857178 -1.11921250820159912 -2.98078083992004395
-1.73140311241149902 1.50597012042999268 1.42450869083404541
-1.69069743156433105 -0.333007097244262695 -1.21294832229614258
-1.64454197883605957 1.08188796043395996 -2.21000003814697266
-3.28104114532470703 -0.1763019859790802 -0.718938231468200684
-2.36911940574645996 1.28979456424713135 -1.38731479644775391
0.243503034114837646 0.5473136305809021 -1.53083920478820801
1.39212989807128906 -1.36930322647094727 -0.0246128775179386139
-2.71169185638427734 -1.95439028739929199 0.854106366634368896
1.3149411678314209 -2.10226225852966309 -1.66164183616638184
0.56447678804397583 -3.63507366180419922 -3.13922357559204102
-0.910187840461730957 0.274744391441345215 1.8327031135559082
-2.34808158874511719 -1.65427243709564209 -1.50617718696594238
-3.08647489547729492 -0.955572247505187988 -2.18747735023498535
-3.60377788543701172 -1.94999408721923828 -1.34717535972595215
-2.27520370483398438 -0.38740241527557373 -0.535742342472076416
0.55933147668838501 -1.66090965270996094 -0.762169837951660156
0.83417820930480957 1.14622700214385986 -0.031659979373216629
-3.19207072257995605 -1.01196837425231934 -0.45160442590713501
1.5751190185546875 -0.190059572458267212 -2.02697563171386719
0.60462498664855957 -1.34889459609985352 -3.54009532928466797
-1.40737199783325195 1.65850508213043213 0.960899293422698975
-2.02977156639099121 -0.427556723356246948 -1.45567607879638672
-1.2716984748840332 1.87090778350830078 -2.26843476295471191
-2.45003056526184082 -0.259162634611129761 0.0473243184387683868
-1.33172440528869629 1.08140873908996582 -2.02127456665039062
0.636671662330627441 0.154586479067802429 -0.977514207363128662
0.842384874820709229 -0.343591064214706421 -0.336841285228729248
-2.47585892677307129 -1.34853720664978027 -0.339845091104507446
1.70648407936096191 -1.15883076190948486 -1.96529853343963623
0.367307305335998535 -2.00706315040588379 -3.14013886451721191
-0.750828564167022705 0.569123387336730957 1.70026493072509766
-1.08329367637634277 -1.16540765762329102 -1.14379024505615234
-1.48515462875366211 1.040252685546875 -2.32383894920349121
-1.79246258735656738 -0.837829351425170898 -0.0220418460667133331
-1.33948135375976562 0.160636216402053833 -1.22915458679199219
0.307991564273834229 -0.0979472696781158447 -1.28067970275878906
0.57282710075378418 1.41189992427825928 -0.991930663585662842
-2.41941046714782715 0.295035600662231445 -0.557236075401306152
1.8044276237487793 0.524400055408477783 -1.92548096179962158
0.306364178657531738 -0.786815643310546875 -3.47863364219665527
-0.445695281028747559 1.3787682056427002 0.981907427310943604
-1.61621987819671631 0.667523801326751709 -0.445448249578475952
-1.48603951930999756 2.50546503067016602 -2.17521858215332031
-1.91008234024047852 0.166190505027770996 0.0119841303676366806
-1.21575653553009033 1.70742249488830566 -1.61688101291656494
1.15750312805175781 0.984753608703613281 -2.21726846694946289
0.0161817371845245361 -0.264746934175491333 -0.672399461269378662
-1.07101678848266602 -0.682864069938659668 -0.0630825385451316833
2.15415406227111816 -0.44348028302192688 -1.28154647350311279
-0.440889745950698853 -2.15397286415100098 -2.24149775505065918
0.433382570743560791 0.440183073282241821 1.19979012012481689
-0.0907919704914093018 -0.411005169153213501 -1.70352053642272949
0.0789949595928192139 1.23803389072418213 -1.8495643138885498
-1.05779218673706055 -1.48406124114990234 -0.44126543402671814
-0.475117951631546021 -0.122187018394470215 -0.76406705379486084
1.16826736927032471 -0.492518693208694458 -1.30020463466644287
1.12888050079345703 -1.40068554878234863 -0.310605019330978394
-2.63705992698669434 -1.19463062286376953 0.616364836692810059
1.31823444366455078 -1.71696305274963379 -1.8262399435043335
0.91988450288772583 -2.46476268768310547 -2.41797280311584473
-0.655679941177368164 1.07336413860321045 0.934200525283813477
-1.33531904220581055 -1.13464081287384033 -1.51568222045898438
-2.58967018127441406 -0.157908767461776733 -1.97387111186981201
-3.36975193023681641 -0.740992486476898193 -0.584401071071624756
-1.69757604598999023 0.33100515604019165 -0.939066231250762939
0.18262869119644165 -0.897545456886291504 -0.806277930736541748
0.560623407363891602 -1.44906401634216309 -1.72607696056365967
-1.74367010593414307 -1.3326568603515625 0.201310917735099792
1.64212274551391602 -1.92000341415405273 -1.88284504413604736
0.422178864479064941 -2.29132556915283203 -1.97456765174865723
-0.0894790887832641602 2.51303362846374512 1.38843393325805664
-0.480106592178344727 -0.35274234414100647 -2.19973039627075195
-2.47437667846679688 0.464702069759368896 -3.10505509376525879
-3.24571061134338379 0.0158801376819610596 -0.382691174745559692
-1.44734370708465576 0.719998538494110107 -0.319310903549194336
-0.2919425368309021 -0.89334636926651001 -0.127480655908584595
1.70472455024719238 -3.65515446662902832 -1.3765103816986084
-3.24768424034118652 -1.38189911842346191 1.12343525886535645
1.10559248924255371 -2.65264320373535156 -1.45717382431030273
1.66659855842590332 -4.51378154754638672 -2.16945981979370117
-1.22625768184661865 1.49654006958007812 1.27737021446228027
-0.72699505090713501 -0.82576829195022583 -1.6287238597869873
-2.89245319366455078 -0.81464153528213501 -3.27415943145751953
-4.08366107940673828 -1.34878742694854736 -1.29000163078308105
-2.27081871032714844 0.141152799129486084 0.374510705471038818
-0.14091646671295166 -2.12354922294616699 0.0450342260301113129
0.289075374603271484 0.0298055410385131836 -1.44653928279876709
-1.69241154193878174 0.203054189682006836 2.33893227577209473
2.18133664131164551 -1.78174018859863281 -2.24959540367126465
0.56019139289855957 -2.39715075492858887 -2.49647974967956543
1.07790899276733398 3.76957345008850098 1.66854214668273926
0.366111397743225098 0.211172163486480713 -1.74382758140563965
-3.36445927619934082 1.83982968330383301 -3.3992304801940918
-3.81888079643249512 1.56377577781677246 0.359567999839782715
-0.00724041461944580078 1.38305401802062988 0.0941341668367385864
-1.00322651863098145 0.636892914772033691 -0.433799922466278076
0.609340310096740723 -0.853389739990234375 -1.85892069339752197
-2.79950475692749023 -0.340438157320022583 0.663176357746124268
0.773114919662475586 -1.53495287895202637 -1.79123198986053467
0.707604885101318359 -2.31091427803039551 -2.28815174102783203
-0.79893869161605835 2.57477140426635742 1.81454169750213623
0.364387273788452148 0.250027388334274292 -2.39645195007324219
