ply
format ascii 1.0
element vertex 256
comment vertices
property float x
property float y
property float z
end_header
-0.152590423822402954 -0.375701844692230225 -1.47425484657287598
-0.729129910469055176 1.96329724788665771 0.0141669120639562607
-0.042042657732963562 -1.17789769172668457 -1.22265136241912842
1.88758468627929688 0.447437644004821777 0.455111831426620483
1.69748866558074951 -0.211799904704093933 1.02911078929901123
-0.141284853219985962 0.82539069652557373 0.490803569555282593
1.60049128532409668 -0.501677393913269043 -0.960205733776092529
0.819625735282897949 -0.789716780185699463 -0.310761928558349609
-0.204668492078781128 0.771590828895568848 0.422705292701721191
-0.919109106063842773 1.16918933391571045 0.084600597620010376
-0.941989719867706299 -0.850809454917907715 0.229611203074455261
-1.08094668388366699 -0.148220792412757874 0.739134848117828369
-0.566244423389434814 -1.26532137393951416 0.277523785829544067
-0.759437263011932373 -0.27832368016242981 -0.844555914402008057
-0.88534468412399292 -0.926341891288757324 0.254969775676727295
-0.0230996012687683105 0.413377970457077026 0.688589096069335938
0.433271944522857666 -0.442743092775344849 -0.691692888736724854
0.899851799011230469 0.0192480385303497314 -0.725459933280944824
-1.34923422336578369 0.530269742012023926 -0.383306682109832764
-0.0757485926151275635 -1.2757411003112793 -0.0713249668478965759
0.0834891796112060547 0.372671276330947876 0.125074535608291626
-0.541211485862731934 0.478494137525558472 0.0539595447480678558
-0.819308757781982422 -0.406704515218734741 0.00621889578178524971
-0.411523580551147461 -0.61756443977355957 -0.0899463668465614319
0.481473088264465332 0.783831179141998291 0.0666156187653541565
-0.0404692590236663818 0.420509219169616699 0.00775716034695506096
0.391663134098052979 0.206520423293113708 -0.845102250576019287
0.831676959991455078 -0.31949266791343689 -0.442379266023635864
-0.490686476230621338 0.975257039070129395 0.392671763896942139
0.0439704060554504395 -0.56731104850769043 -0.145049095153808594
-1.69908547401428223 -1.59552645683288574 0.141662225127220154
-0.891553640365600586 0.245926260948181152 1.16175651550292969
0.43815302848815918 -1.06595611572265625 0.487550526857376099
-0.362598270177841187 0.377402067184448242 -0.837266743183135986
-1.64069557189941406 -2.04936790466308594 0.717177927494049072
0.174174532294273376 0.851947605609893799 1.10464024543762207
1.31948006153106689 -0.251261055469512939 -0.836220443248748779
1.72948431968688965 0.73041766881942749 -1.03013968467712402
-1.1869499683380127 0.162505984306335449 -0.0321152880787849426
-0.12031632661819458 -1.43379712104797363 0.494723379611968994
-1.26023411750793457 0.987276911735534668 -0.456407874822616577
0.13135586678981781 0.0282847881317138672 0.497537791728973389
0.117709420621395111 -0.240763217210769653 0.101209819316864014
-0.217463746666908264 -1.2823333740234375 -0.0448201969265937805
0.14369608461856842 0.518004536628723145 0.567025423049926758
-0.398571580648422241 -0.793289899826049805 0.323143184185028076
0.418661952018737793 -0.262824475765228271 0.0847719162702560425
0.652213990688323975 -0.244360089302062988 -0.26206323504447937
0.530381381511688232 0.0320993959903717041 0.437844276428222656
-0.0221164431422948837 -0.144868895411491394 -0.0379737988114356995
-0.613057136535644531 0.16298733651638031 -0.538631200790405273
-0.487301617860794067 0.969764590263366699 -0.0189309604465961456
-0.952652454376220703 -0.67805182933807373 -0.840940713882446289
-0.054060712456703186 -0.649030208587646484 0.580212533473968506
0.872203826904296875 0.10938311368227005 0.217682823538780212
-0.371546804904937744 -0.0351804308593273163 -0.445529818534851074
0.354294806718826294 -0.313594579696655273 -0.674627959728240967
0.714770793914794922 -0.993224024772644043 0.0402146466076374054
0.043735206127166748 0.728139877319335938 0.751646459102630615
-0.163125470280647278 -0.446407407522201538 0.0166206751018762589
-0.512034118175506592 0.303605437278747559 -0.640555262565612793
-0.231881484389305115 0.660898387432098389 -0.35116952657699585
-0.545477092266082764 -0.205693870782852173 -0.39633062481880188
0.424371719360351562 0.26277238130569458 0.184109330177307129
0.413994073867797852 0.142475739121437073 0.0785028785467147827
-0.103634610772132874 0.113588921725749969 0.00522267865017056465
0.61882317066192627 -0.240772515535354614 -0.397895246744155884
0.472500324249267578 -0.272234916687011719 -0.23769746720790863
-0.0780740231275558472 0.828186154365539551 0.211366638541221619
-0.036075003445148468 0.131925910711288452 0.0101948101073503494
-1.28829050064086914 -0.659382522106170654 -0.757160544395446777
-0.737309157848358154 0.995362222194671631 0.395046442747116089
-0.410141825675964355 -1.0191962718963623 -0.290781497955322266
0.623141884803771973 0.558515548706054688 -0.139350742101669312
0.404392719268798828 -1.53721761703491211 0.680876612663269043
-0.0104620754718780518 0.757093667984008789 0.670540750026702881
1.06505489349365234 -0.463858842849731445 -0.74456101655960083
0.921297967433929443 0.015828106552362442 -0.383439719676971436
-0.148051857948303223 0.215436890721321106 0.291555583477020264
-0.128285109996795654 0.0127551741898059845 0.349443107843399048
-1.15537405014038086 -1.37399864196777344 0.077077813446521759
-0.843506455421447754 -0.0769782513380050659 0.847470283508300781
0.212099656462669373 -0.726882815361022949 0.239176496863365173
-0.0253129526972770691 0.149501949548721313 -0.904932141304016113
-1.04271471500396729 -1.63600063323974609 0.768725156784057617
0.161526113748550415 0.476213395595550537 0.78248751163482666
0.742173850536346436 -0.309009313583374023 -0.713230907917022705
0.900486230850219727 0.427229523658752441 -0.830595672130584717
-1.24462687969207764 0.151642203330993652 -0.055229969322681427
-0.155512198805809021 -0.934686601161956787 0.0620050467550754547
-1.54057502746582031 -0.834552288055419922 -0.528307735919952393
-1.152618408203125 0.670264244079589844 0.61443483829498291
-0.652756929397583008 -1.24761748313903809 0.0383595824241638184
0.146403566002845764 0.192808777093887329 -0.609573423862457275
-0.740364611148834229 -1.76737236976623535 0.471509099006652832
-0.184791773557662964 0.63012397289276123 0.836087942123413086
0.69819796085357666 -0.641108334064483643 -0.901452362537384033
0.811453819274902344 8.7261199951171875e-05 -0.847204387187957764
-0.931553006172180176 0.484688103199005127 -0.00707633234560489655
-0.533766329288482666 -0.678597331047058105 0.276990771293640137
-0.324485808610916138 -0.0585101544857025146 -0.66608428955078125
-0.355883747339248657 1.04514646530151367 -0.412843257188796997
-0.24555031955242157 -0.236502468585968018 -0.76934349536895752
0.564278781414031982 -0.598270654678344727 0.752030313014984131
1.16587460041046143 0.443942070007324219 0.297174423933029175
-0.148965373635292053 0.369801431894302368 -0.172617122530937195
0.922662436962127686 0.015852808952331543 -0.961468398571014404
1.10038018226623535 -1.00036907196044922 -0.00522720674052834511
0.521151900291442871 1.11037516593933105 0.830092847347259521
0.254127144813537598 -0.0854297280311584473 0.0748598724603652954
-0.748385190963745117 0.523570120334625244 -0.458369612693786621
0.241336539387702942 0.0745000243186950684 0.365576744079589844
0.207996219396591187 -0.118147388100624084 -0.0708762556314468384
-0.0611038357019424438 -0.51517486572265625 -0.0732517614960670471
0.231111392378807068 0.261459141969680786 0.171279981732368469
-0.156240090727806091 -0.352281033992767334 -0.029209943488240242
0.555981993675231934 -0.241092056035995483 0.0867662057280540466
0.588333547115325928 -0.268602460622787476 0.0414994694292545319
0.256895720958709717 0.12480461597442627 0.139913201332092285
0.115332618355751038 -0.0234894026070833206 0.0637357905507087708
-0.297873497009277344 -0.823248505592346191 -1.34632277488708496
-0.763154149055480957 1.09461379051208496 0.00708084320649504662
-0.166426286101341248 -1.16648030281066895 -0.866448879241943359
1.98864173889160156 -0.144644454121589661 0.245766282081604004
1.50555992126464844 -0.528846979141235352 0.755802333354949951
-0.196834966540336609 0.330225259065628052 0.381152123212814331
1.49758017063140869 -0.842447161674499512 -0.930677115917205811
0.824265897274017334 -1.35374760627746582 -0.311017900705337524
0.104973822832107544 0.586661279201507568 0.505279898643493652
-0.50555574893951416 0.611962199211120605 -0.141874805092811584
-0.666908860206604004 0.489001274108886719 -0.127853378653526306
-0.0119908601045608521 0.177040696144104004 0.282952547073364258
-0.0638141781091690063 -0.199432015419006348 -0.101452797651290894
-0.300951719284057617 -0.627213776111602783 -0.106446810066699982
-0.0697499141097068787 0.142242506146430969 0.0897037163376808167
-0.257111012935638428 -0.364483952522277832 0.114764653146266937
0.233445331454277039 -0.127033829689025879 -0.181786611676216125
0.389934420585632324 -0.120432808995246887 -0.231595709919929504
-0.102864727377891541 0.242683619260787964 0.0415324270725250244
-0.240982592105865479 -0.137613460421562195 0.0487575531005859375
-1.33478188514709473 1.02966713905334473 -0.474905729293823242
-0.284175336360931396 0.2198525071144104 0.49585491418838501
-0.0483040213584899902 -0.117873035371303558 0.0718323290348052979
-0.410453438758850098 -0.857809901237487793 -0.105724036693572998
-0.0979701429605484009 0.813500523567199707 0.506042242050170898
-0.723579049110412598 -0.58341217041015625 0.309702038764953613
0.199716165661811829 0.0127915963530540466 -0.0602769851684570312
0.307368099689483643 0.081911914050579071 -0.232310369610786438
0.331437230110168457 0.251837462186813354 0.496882021427154541
-0.185559302568435669 0.141510456800460815 -0.087688833475112915
-0.150274604558944702 -0.787780046463012695 -0.373954534530639648
-0.800377011299133301 0.218502894043922424 0.434855073690414429
-0.185014501214027405 -0.687646925449371338 -0.314785301685333252
1.20883703231811523 0.0722445398569107056 -0.164746582508087158
0.6912994384765625 -0.204457059502601624 0.316332876682281494
-0.1724814772605896 0.59422612190246582 0.468144476413726807
0.98312222957611084 -0.545072615146636963 -0.586999118328094482
0.513762354850769043 -1.0364539623260498 -0.652364969253540039
-0.579508304595947266 0.33908766508102417 0.69542086124420166
-0.748451709747314453 0.0078385472297668457 -0.175763234496116638
-0.210195988416671753 -0.0468987822532653809 -0.355801045894622803
-0.452682793140411377 0.705452263355255127 -0.237309664487838745
-0.322166800498962402 -0.137928754091262817 -0.500647902488708496
0.458542525768280029 -0.340767771005630493 0.329192399978637695
0.725062668323516846 0.473844945430755615 0.0816243439912796021
-0.198081761598587036 0.470684975385665894 -0.0987265706062316895
0.539881110191345215 0.0808103680610656738 -0.651029050350189209
0.682646572589874268 -0.655823826789855957 -0.0826655179262161255
-0.00607907772064208984 1.01656162738800049 0.680663466453552246
-0.0473967120051383972 -0.0566908717155456543 -0.0495204441249370575
-0.207317948341369629 -0.0150263011455535889 -0.335470706224441528
-0.196345269680023193 0.532435715198516846 -0.0527858920395374298
0.0794376134872436523 0.232413738965988159 -0.178477585315704346
-0.0720483362674713135 -0.173882991075515747 0.084768734872341156
0.707623600959777832 0.191375032067298889 0.0348313339054584503
0.179939150810241699 0.525204181671142578 0.0127804819494485855
0.537840604782104492 0.294609636068344116 -0.275958836078643799
0.757153153419494629 -0.223061442375183105 0.119805872440338135
0.660826027393341064 1.21088254451751709 0.436532765626907349
0.902685165405273438 -0.0837871432304382324 -0.0898519977927207947
-0.841823816299438477 0.779702663421630859 -0.510922133922576904
0.122658714652061462 0.252260476350784302 0.32424578070640564
0.338928282260894775 -0.250984668731689453 -0.000611122697591781616
-0.00687906146049499512 -0.344694375991821289 -0.0391638167202472687
0.302944988012313843 0.496812224388122559 0.08802071213722229
-0.163933396339416504 -0.272017896175384521 0.19848930835723877
0.906303524971008301 0.0584087297320365906 -0.0781833231449127197
0.855296611785888672 0.097989790141582489 0.00397006049752235413
0.526401162147521973 0.184015661478042603 0.342783987522125244
0.0563914775848388672 0.106413125991821289 0.00627306103706359863
-0.440947771072387695 0.458744406700134277 -0.282184183597564697
-0.0479208901524543762 0.137167870998382568 0.260773837566375732
0.114915579557418823 0.0111028701066970825 -0.0299079269170761108
0.148047864437103271 -0.137920022010803223 -0.312161147594451904
0.0136539526283740997 0.259163409471511841 0.0972482115030288696
-0.239474833011627197 -0.277680724859237671 0.175683081150054932
0.335833847522735596 0.0933807492256164551 -0.155286327004432678
0.598751306533813477 0.0378884896636009216 -0.157856255769729614
0.123368635773658752 0.509571671485900879 0.0846235975623130798
0.0730228275060653687 0.078965701162815094 0.0145689891651272774
-1.16792929172515869 -0.30695497989654541 -0.096445031464099884
-0.95375669002532959 0.356070458889007568 0.488035917282104492
-0.440455913543701172 -0.493279427289962769 -0.00204618414863944054
-0.312478125095367432 0.309460639953613281 -0.442020207643508911
-0.514179825782775879 -0.47246888279914856 0.109451107680797577
-0.118681520223617554 0.634974956512451172 0.436468362808227539
0.291613996028900146 0.0136856734752655029 -0.59552532434463501
0.565940141677856445 0.271055638790130615 -0.60635000467300415
-0.820869505405426025 0.925598263740539551 -0.0458838753402233124
0.0038814544677734375 -0.607963681221008301 -0.0231946967542171478
-0.86184990406036377 -1.09467792510986328 0.0108526963740587234
-0.660769462585449219 0.057713732123374939 0.599991083145141602
0.381227433681488037 -0.513718724250793457 0.294124811887741089
0.172795102000236511 0.404559731483459473 -0.48759874701499939
-0.705787777900695801 -1.59773147106170654 0.63915860652923584
0.09332236647605896 0.434356153011322021 0.708711743354797363
0.808533549308776855 -0.274972915649414062 -0.541554033756256104
1.05927205085754395 0.391935944557189941 -0.853014767169952393
-0.54742133617401123 0.158732905983924866 0.270586013793945312
-0.0184326767921447754 -0.780928671360015869 0.369822531938552856
-2.19664692878723145 -0.574603796005249023 -0.890214443206787109
-1.34112310409545898 1.30904138088226318 0.609542310237884521
-1.01076769828796387 -1.3524242639541626 -0.251469641923904419
0.15186697244644165 0.45855751633644104 -0.309550374746322632
-0.537450194358825684 -2.04160356521606445 0.527302563190460205
-0.297824710607528687 0.731825947761535645 0.813685178756713867
0.969952225685119629 -0.81221461296081543 -1.15184533596038818
0.903431296348571777 0.101113155484199524 -0.705420732498168945
-0.789667189121246338 0.657507658004760742 0.149859622120857239
-0.518978536128997803 -0.260945141315460205 0.528925299644470215
-0.727680027484893799 0.752943754196166992 -0.436173856258392334
-0.258877158164978027 0.17864575982093811 0.309633702039718628
0.118341162800788879 -0.0382909774780273438 -0.0238484777510166168
-0.0433414243161678314 -1.01614642143249512 0.0178045965731143951
0.109623096883296967 0.594576835632324219 0.398366540670394897
-0.508627891540527344 -0.650679111480712891 0.25791853666305542
0.371223926544189453 -0.20728600025177002 -0.114301130175590515
0.529661357402801514 0.0140276215970516205 -0.251958638429641724
0.479513704776763916 0.400614172220230103 0.324780523777008057
0.0175494160503149033 -0.0318513289093971252 -0.0977380871772766113
0.00219479203224182129 0.00897350907325744629 -0.611418843269348145
-0.191545009613037109 0.858431339263916016 -0.380423754453659058
-0.0320066660642623901 -0.190769761800765991 -0.719106912612915039
0.730415284633636475 -0.52198183536529541 0.699354588985443115
1.32342076301574707 0.618094086647033691 0.363597095012664795
0.0244047492742538452 0.457721710205078125 -0.139511778950691223
0.980842888355255127 0.188247635960578918 -0.861800551414489746
1.14217638969421387 -0.878636360168457031 -0.00793205574154853821
0.554164230823516846 0.904480695724487305 0.808890461921691895
0.227571427822113037 -0.0130152404308319092 0.1313963383436203
-0.594542443752288818 0.628625154495239258 -0.485894709825515747
0.070802934467792511 0.386084437370300293 -0.429417610168457031
-0.22180524468421936 -0.470605671405792236 -0.517688155174255371
-0.0518486052751541138 -1.18025612831115723 0.812065958976745605
0.748767554759979248 0.319015860557556152 0.616163849830627441
-0.516172111034393311 -0.38985598087310791 -0.00777148688212037086
